<?xml version="1.0" standalone="no"?>
<!DOCTYPE svg PUBLIC "-//W3C//DTD SVG 20010904//EN"
 "http://www.w3.org/TR/2001/REC-SVG-20010904/DTD/svg10.dtd">
<svg version="1.0" xmlns="http://www.w3.org/2000/svg"
 width="1100.000000pt" height="1100.000000pt" viewBox="0 0 1100.000000 1100.000000"
 preserveAspectRatio="xMidYMid meet">
<metadata>
Created by potrace 1.11, written by Peter Selinger 2001-2013
</metadata>
<g transform="translate(0.000000,1100.000000) scale(0.100000,-0.100000)"
fill="#000000" stroke="none">
<path d="M3990 9873 c-8 -3 -28 -11 -45 -18 -16 -8 -41 -17 -55 -20 -14 -4
-53 -20 -87 -36 -34 -16 -68 -29 -75 -29 -8 0 -22 -6 -33 -14 -11 -8 -39 -19
-63 -26 -23 -7 -42 -16 -42 -20 0 -4 -17 -12 -39 -18 -21 -7 -44 -19 -51 -27
-7 -8 -17 -15 -22 -15 -12 0 -161 -71 -168 -80 -3 -3 -20 -12 -38 -19 -18 -8
-36 -19 -40 -25 -4 -6 -41 -29 -82 -50 -41 -22 -79 -44 -85 -48 -5 -5 -35 -24
-65 -43 -30 -19 -60 -38 -66 -44 -6 -5 -25 -16 -42 -25 -18 -9 -32 -21 -32
-26 0 -5 -8 -11 -17 -14 -10 -3 -31 -17 -47 -31 -16 -14 -32 -25 -36 -25 -4 0
-16 -8 -28 -17 -35 -31 -56 -47 -102 -82 -25 -19 -54 -43 -65 -52 -11 -10 -34
-31 -52 -46 -17 -15 -45 -39 -62 -53 -54 -43 -334 -322 -401 -399 -36 -41 -72
-82 -80 -92 -82 -94 -170 -207 -170 -219 0 -5 -5 -10 -10 -10 -6 0 -14 -8 -17
-17 -7 -19 -63 -98 -88 -124 -8 -9 -15 -20 -15 -26 0 -5 -9 -18 -20 -28 -11
-10 -20 -23 -20 -28 0 -9 -67 -116 -79 -127 -10 -8 -40 -62 -57 -102 -10 -21
-20 -38 -23 -38 -3 0 -19 -10 -35 -23 -22 -18 -30 -35 -37 -75 -4 -31 -35
-108 -72 -185 -36 -73 -71 -150 -78 -172 -8 -22 -17 -42 -20 -45 -4 -3 -14
-29 -23 -59 -9 -30 -22 -64 -30 -75 -7 -12 -17 -37 -21 -56 -4 -19 -11 -37
-14 -40 -4 -3 -15 -36 -25 -75 -10 -38 -24 -83 -31 -100 -7 -16 -16 -48 -20
-70 -4 -22 -13 -54 -21 -71 -7 -17 -18 -55 -24 -85 -6 -30 -15 -63 -20 -74 -8
-18 -39 -176 -42 -215 0 -8 -4 -17 -8 -20 -4 -3 -15 -68 -23 -145 -8 -77 -21
-160 -29 -185 -10 -34 -13 -153 -13 -500 0 -396 2 -462 17 -510 9 -30 22 -111
28 -180 7 -69 16 -126 21 -128 5 -2 9 -15 9 -29 0 -38 31 -216 40 -228 4 -5
11 -32 14 -58 4 -27 15 -68 25 -90 10 -23 24 -67 30 -97 7 -30 19 -68 26 -85
7 -16 17 -48 21 -70 4 -22 15 -56 25 -75 11 -19 19 -42 19 -50 0 -8 8 -28 18
-45 10 -16 22 -43 26 -60 4 -16 16 -47 25 -70 10 -22 25 -58 32 -80 8 -22 16
-42 19 -45 10 -10 80 -158 80 -169 0 -6 4 -11 8 -11 5 0 15 -18 22 -40 7 -22
17 -40 22 -40 5 0 6 -5 3 -10 -3 -5 -2 -10 2 -10 5 0 16 -17 26 -37 9 -21 31
-60 47 -88 16 -27 36 -65 44 -83 8 -17 19 -32 23 -32 4 0 17 -18 27 -40 11
-22 23 -40 28 -40 4 0 8 -5 8 -11 0 -6 36 -62 80 -125 44 -62 80 -118 80 -123
0 -6 9 -15 20 -21 11 -6 20 -17 20 -26 0 -8 7 -17 15 -20 9 -4 21 -17 28 -29
7 -13 39 -53 72 -90 33 -37 65 -75 70 -84 42 -69 464 -478 590 -572 22 -16 52
-39 66 -52 15 -12 37 -30 50 -40 13 -9 38 -28 54 -40 17 -13 38 -26 48 -30 9
-3 17 -11 17 -16 0 -6 14 -18 32 -27 17 -9 36 -20 42 -25 6 -6 36 -25 66 -44
30 -19 62 -40 70 -47 8 -7 26 -19 40 -26 14 -7 48 -26 75 -42 28 -16 66 -37
85 -47 19 -10 41 -24 48 -30 7 -7 24 -16 38 -19 13 -3 24 -10 24 -14 0 -5 23
-16 51 -25 28 -10 59 -25 69 -35 10 -10 32 -21 49 -25 17 -4 31 -10 31 -14 0
-5 20 -14 45 -21 25 -7 45 -15 45 -19 0 -7 40 -25 80 -36 14 -4 35 -16 48 -26
12 -9 40 -20 62 -24 22 -4 40 -10 40 -15 0 -4 15 -11 33 -14 17 -3 43 -12 57
-19 14 -7 62 -24 108 -37 45 -13 82 -27 82 -31 0 -3 34 -12 75 -20 41 -7 75
-16 75 -20 0 -3 35 -12 78 -19 42 -7 79 -16 82 -20 3 -4 28 -9 56 -12 l50 -5
-8 61 c-9 61 6 176 22 176 5 0 11 18 15 40 4 22 11 42 16 46 5 3 9 14 9 24 0
10 5 20 10 22 6 2 15 31 21 66 6 34 14 62 18 62 4 0 16 35 27 78 10 42 21 79
24 82 11 9 40 90 40 110 0 11 4 20 8 20 5 0 15 26 22 58 7 31 15 59 19 62 3 3
14 37 24 75 10 39 25 77 32 85 7 8 16 31 20 50 4 19 13 46 20 60 7 14 18 51
25 82 6 32 15 60 20 63 4 3 14 29 20 57 7 29 15 58 19 63 3 6 6 16 8 24 1 8 6
17 11 20 6 3 13 24 17 46 4 22 11 45 15 50 5 6 16 39 25 75 9 36 22 79 30 95
7 17 17 48 20 70 4 22 12 46 18 54 6 7 12 18 14 25 13 58 25 102 32 111 4 5
16 46 25 90 10 44 22 89 26 100 5 11 17 49 26 85 9 36 21 70 25 75 4 6 13 39
20 75 7 36 15 67 19 70 4 3 14 46 24 95 9 50 21 99 25 110 25 61 31 79 37 124
4 28 10 49 14 46 4 -2 13 30 20 73 7 42 16 82 21 87 4 6 10 32 14 58 7 45 9
48 34 45 21 -2 27 -9 29 -33 2 -16 7 -32 11 -35 6 -4 18 -51 35 -136 1 -7 7
-18 12 -25 6 -8 19 -60 29 -117 10 -56 21 -102 25 -102 4 0 13 -34 20 -75 7
-41 16 -75 20 -75 4 0 11 -21 15 -46 3 -26 11 -58 17 -73 6 -14 14 -35 18 -46
4 -11 17 -58 29 -105 43 -173 52 -205 61 -214 6 -6 10 -20 10 -32 0 -13 5 -26
10 -29 6 -3 10 -13 10 -22 0 -8 6 -29 14 -46 8 -18 22 -63 32 -102 9 -38 21
-74 24 -80 4 -5 11 -26 15 -45 4 -19 12 -41 18 -49 6 -7 12 -18 14 -25 9 -42
38 -132 43 -136 4 -3 15 -38 25 -78 9 -40 21 -74 25 -77 5 -3 11 -23 15 -44 4
-22 13 -45 20 -51 8 -6 19 -37 25 -68 7 -31 17 -66 24 -77 7 -11 19 -44 26
-74 7 -30 19 -66 26 -80 8 -14 14 -34 14 -44 0 -18 17 -57 29 -67 4 -3 15 -40
26 -83 10 -43 22 -80 26 -83 4 -2 13 -29 19 -59 6 -30 15 -55 19 -55 5 0 11
-18 15 -40 3 -22 14 -54 24 -72 10 -18 27 -67 37 -108 11 -41 22 -77 26 -80 4
-3 10 -21 14 -40 7 -33 26 -85 46 -122 5 -9 12 -35 15 -57 l7 -41 41 6 c22 4
46 10 51 14 6 4 43 13 83 20 39 7 72 16 72 20 0 3 34 12 75 19 41 8 75 17 75
22 0 8 58 24 77 21 6 -2 14 2 18 8 3 5 13 10 21 10 8 0 34 8 57 19 23 10 57
22 75 26 17 3 32 10 32 14 0 4 25 13 56 20 30 7 58 19 60 26 3 8 20 17 37 21
18 3 43 14 57 24 14 9 43 23 65 30 22 7 42 16 45 19 3 4 24 15 48 25 23 11 42
23 42 28 0 4 5 8 10 8 17 0 161 70 177 85 8 8 20 15 27 15 7 0 21 8 32 17 11
10 54 36 95 57 40 22 76 42 79 46 3 4 30 23 60 43 30 20 60 41 66 46 6 5 25
16 42 25 18 9 32 20 32 24 0 5 16 16 35 25 19 9 35 21 35 25 0 5 11 14 25 20
27 12 32 16 80 56 17 14 50 41 75 61 54 43 128 109 214 190 35 33 81 76 102
96 97 89 328 341 325 354 -1 3 9 15 23 26 15 11 26 27 26 35 0 8 4 14 9 14 11
0 95 110 84 110 -4 0 -3 4 2 8 17 12 75 90 75 101 0 5 6 14 13 18 14 9 35 41
43 66 4 9 10 17 15 17 5 0 16 14 25 32 9 18 23 38 30 46 8 7 17 24 20 38 3 13
10 24 14 24 5 0 12 10 16 23 3 12 19 40 35 61 16 22 29 46 29 53 0 7 5 13 11
13 5 0 7 5 4 10 -3 6 -2 10 3 10 5 0 16 15 23 32 7 18 33 67 56 109 24 42 43
84 43 93 0 9 4 16 9 16 6 0 18 25 27 55 10 30 21 55 26 55 4 0 8 5 8 11 0 5
11 34 24 62 32 70 72 172 87 227 7 25 21 60 31 78 10 18 18 39 18 48 0 8 8 34
19 57 10 23 22 62 26 87 4 25 10 50 14 55 8 12 27 91 36 153 4 23 13 55 21 70
7 16 19 64 25 108 6 43 15 84 19 89 4 6 13 60 19 120 7 61 17 126 22 145 41
141 41 1003 0 1165 -5 22 -15 90 -22 150 -7 61 -15 112 -19 115 -3 3 -12 43
-19 89 -7 46 -17 95 -24 110 -6 14 -20 71 -31 125 -12 55 -26 101 -32 103 -14
5 -24 -42 -24 -108 0 -27 -4 -49 -9 -49 -10 0 -17 -31 -31 -144 -5 -43 -14
-84 -19 -90 -4 -6 -13 -50 -19 -98 -6 -48 -18 -101 -27 -117 -8 -17 -15 -45
-15 -63 0 -18 -7 -65 -16 -103 -8 -39 -19 -104 -24 -145 -14 -126 -31 -214
-40 -220 -6 -3 -14 -34 -18 -69 -5 -35 -14 -66 -20 -69 -10 -7 -42 -143 -42
-180 0 -11 -6 -32 -14 -47 -8 -15 -17 -49 -21 -75 -4 -26 -15 -57 -26 -69 -11
-11 -24 -43 -31 -71 -6 -27 -15 -50 -20 -50 -4 0 -8 -8 -8 -17 0 -23 -22 -83
-31 -83 -4 0 -10 -19 -14 -42 -15 -90 -55 -124 -87 -76 -13 19 -24 23 -73 23
-42 0 -60 -4 -69 -18 -7 -9 -24 -17 -38 -17 -24 0 -25 3 -31 76 -3 48 -11 82
-21 93 -9 10 -16 21 -16 25 0 14 -55 76 -67 76 -20 0 -15 28 12 68 14 20 25
42 25 48 0 7 7 14 15 18 8 3 15 10 15 15 0 5 21 30 46 56 44 43 104 143 104
172 0 7 20 31 44 53 28 26 47 53 51 73 6 31 18 63 36 99 5 10 9 25 9 33 0 8 4
15 8 15 5 0 15 19 22 43 8 23 18 48 23 55 5 6 6 12 2 12 -5 0 -1 8 7 18 9 9
22 44 29 77 7 33 16 65 20 71 10 13 29 134 29 190 0 53 -38 99 -75 90 -23 -6
-24 -4 -18 26 4 18 12 39 20 46 16 16 18 399 2 502 -13 89 -38 190 -54 220
-12 22 -48 107 -76 178 -10 25 -64 62 -91 62 -10 0 -18 4 -18 8 0 4 -24 17
-52 27 -29 10 -58 24 -64 29 -50 47 -105 76 -144 76 -11 0 -20 5 -20 10 0 6
-10 10 -22 10 -13 1 -41 9 -63 20 -22 11 -45 19 -52 20 -6 0 -13 4 -15 8 -1 4
-27 18 -57 30 -50 20 -56 21 -84 7 -21 -10 -33 -12 -37 -5 -4 6 -43 10 -96 10
-58 -1 -104 4 -133 14 -24 9 -50 16 -57 16 -8 0 -23 9 -33 19 -11 11 -37 23
-57 27 -21 4 -43 11 -49 15 -5 5 -23 19 -40 33 -40 32 -75 37 -171 27 -86 -9
-114 -23 -140 -73 -8 -16 -22 -28 -31 -28 -9 0 -39 24 -67 54 -28 30 -63 58
-78 61 -16 4 -28 10 -28 14 0 8 -90 55 -122 65 -12 4 -18 15 -18 35 0 49 -30
162 -48 181 -9 10 -33 22 -52 27 -25 7 -36 16 -38 31 -2 12 1 22 7 22 12 0 15
33 4 44 -5 4 -8 13 -8 18 0 6 -15 20 -34 30 -31 18 -36 18 -66 4 -18 -9 -38
-16 -45 -16 -6 0 -31 -12 -56 -26 -32 -19 -44 -32 -44 -50 0 -35 -29 -46 -91
-34 -41 8 -66 7 -112 -5 -72 -19 -97 -19 -97 -2 0 56 -71 113 -118 96 -34 -13
-100 -11 -104 3 -6 18 -112 23 -129 6 -8 -8 -29 -23 -46 -33 -18 -11 -33 -23
-33 -27 0 -4 -7 -8 -15 -8 -49 0 -135 -76 -136 -119 -1 -47 -33 -112 -63 -129
-72 -41 -111 -98 -135 -199 -7 -29 -19 -57 -27 -64 -8 -6 -14 -18 -14 -26 0
-27 -51 -83 -76 -83 -32 0 -180 -148 -207 -207 -6 -13 -13 -23 -17 -23 -4 0
-11 -15 -14 -34 -4 -21 -24 -53 -52 -82 -62 -66 -103 -146 -114 -224 -9 -60
-7 -68 15 -101 33 -50 43 -107 20 -115 -10 -4 -26 3 -43 18 -56 52 -65 52
-113 0 -25 -26 -60 -57 -79 -69 -111 -69 -143 -83 -207 -93 -37 -6 -69 -13
-72 -16 -2 -2 -4 -18 -4 -35 0 -34 47 -85 89 -95 13 -3 24 -10 24 -15 0 -5 16
-17 35 -26 19 -9 35 -20 35 -23 0 -4 18 -13 40 -20 22 -7 40 -17 40 -21 0 -4
8 -10 18 -13 10 -4 44 -31 75 -61 31 -30 61 -55 67 -55 6 0 53 -28 103 -61 65
-44 104 -63 134 -67 45 -5 80 -40 69 -68 -3 -8 -2 -14 2 -14 5 0 19 -19 32
-42 28 -52 31 -56 117 -143 77 -78 80 -80 175 -130 50 -26 79 -35 115 -35 58
0 137 23 160 46 20 20 108 14 145 -10 34 -22 100 -30 142 -16 20 6 36 15 36
20 0 4 15 13 33 21 17 7 34 16 37 19 3 3 34 12 70 19 36 7 67 17 68 22 6 14
82 11 82 -4 0 -13 76 -67 95 -67 6 0 24 -13 39 -29 l29 -30 -18 -53 c-19 -62
-51 -99 -100 -118 -19 -8 -35 -17 -35 -22 0 -4 -7 -8 -15 -8 -20 0 -19 -39 2
-147 13 -66 21 -88 39 -100 26 -17 41 -11 55 20 28 62 69 110 104 120 29 9 42
-3 81 -80 9 -18 22 -37 30 -44 8 -6 14 -18 14 -26 0 -7 7 -16 16 -20 9 -3 14
-15 12 -27 -1 -13 11 -39 30 -63 17 -23 32 -50 32 -61 0 -46 14 -80 50 -121
42 -48 56 -96 45 -160 -5 -31 -15 -45 -46 -67 -22 -15 -43 -32 -47 -39 -11
-18 -75 -60 -97 -63 -54 -9 -103 -2 -113 15 -4 6 -18 14 -32 18 -31 8 -86 56
-95 84 -3 12 -11 21 -16 21 -5 0 -9 7 -9 15 0 33 -35 36 -218 24 -97 -7 -198
-9 -224 -5 -43 6 -84 32 -184 115 -6 5 -33 16 -60 24 -27 9 -64 23 -81 32 -49
25 -68 13 -82 -49 -7 -30 -21 -62 -31 -71 -11 -10 -20 -22 -20 -26 0 -13 -43
-52 -80 -73 -19 -11 -42 -26 -53 -35 -10 -9 -31 -26 -45 -38 -15 -13 -33 -23
-39 -23 -7 0 -13 -5 -13 -10 0 -17 -52 -32 -86 -25 -17 3 -41 13 -53 23 -11 9
-33 27 -49 39 -98 77 -106 89 -131 180 l-12 42 -52 -36 c-66 -47 -166 -151
-173 -181 -4 -12 -9 -22 -13 -22 -4 0 -13 -11 -19 -25 -6 -13 -23 -27 -36 -31
-22 -5 -24 -10 -19 -36 6 -29 -9 -69 -34 -96 -7 -7 -13 -20 -13 -27 0 -8 -9
-19 -20 -25 -11 -6 -20 -16 -20 -23 0 -7 -16 -37 -35 -67 -19 -30 -35 -62 -35
-71 0 -10 -3 -19 -7 -21 -13 -5 -48 -61 -63 -98 -7 -19 -24 -46 -36 -59 -13
-12 -26 -33 -30 -45 -4 -11 -9 -23 -13 -26 -14 -11 -48 -67 -61 -100 -8 -19
-22 -41 -32 -48 -9 -7 -23 -31 -29 -52 -7 -22 -16 -40 -20 -40 -8 0 -23 -25
-58 -97 -11 -24 -24 -43 -28 -43 -5 0 -16 -17 -26 -37 -9 -21 -30 -60 -46 -88
-32 -54 -145 -279 -155 -307 -4 -13 -16 -18 -41 -18 -19 0 -35 4 -35 9 0 5
-24 17 -52 27 -29 9 -59 23 -66 31 -7 7 -19 13 -26 13 -7 0 -25 11 -41 26 -21
19 -36 24 -64 22 -36 -3 -36 -3 -34 -48 2 -50 16 -63 87 -90 l41 -15 3 -64 c2
-35 -1 -67 -5 -70 -35 -26 -49 -104 -29 -161 9 -25 16 -60 16 -79 0 -52 -31
-141 -68 -194 -20 -29 -38 -72 -45 -105 -6 -32 -21 -71 -34 -89 -13 -17 -23
-36 -23 -42 0 -6 -5 -11 -10 -11 -6 0 -16 -12 -23 -27 -6 -15 -19 -35 -27 -44
-40 -42 -70 -80 -70 -88 0 -4 -20 -27 -44 -49 -42 -39 -53 -57 -87 -140 -8
-18 -22 -35 -31 -38 -18 -5 -58 11 -69 29 -4 5 -42 13 -85 17 -87 9 -114 17
-114 32 0 6 -7 16 -16 23 -18 13 -30 98 -20 139 4 17 19 31 43 41 21 9 40 19
43 23 3 4 17 13 31 19 19 8 28 22 33 47 4 20 13 36 20 36 42 0 43 70 3 115
-12 13 -40 46 -62 74 -23 30 -54 57 -72 63 -18 7 -33 15 -33 19 0 3 -28 14
-62 24 -35 10 -72 24 -83 31 -11 8 -44 14 -77 14 -53 0 -59 2 -68 25 -5 14
-14 25 -20 25 -7 0 -9 20 -4 61 5 45 13 67 30 84 14 15 24 36 24 53 0 17 6 32
14 35 7 3 18 23 23 44 9 38 9 38 67 44 44 5 64 13 87 35 34 33 79 118 79 151
0 16 10 28 33 40 66 36 97 58 103 76 3 9 9 17 14 17 5 0 14 18 20 40 6 23 27
55 49 77 21 21 45 56 52 78 8 22 16 42 19 45 3 3 11 14 18 25 7 11 22 34 33
50 17 25 20 40 15 98 l-5 69 41 39 c23 21 51 39 63 39 12 0 34 9 48 20 27 22
47 26 47 10 0 -5 7 -10 15 -10 8 0 15 5 15 10 0 6 17 10 38 10 79 1 144 62
169 157 8 32 20 67 27 78 7 11 16 58 20 105 4 47 11 87 16 88 14 5 12 146 -2
160 -16 16 4 52 40 73 16 9 41 43 62 85 41 81 68 124 93 142 9 7 17 19 17 27
0 7 8 21 18 31 14 14 17 34 16 103 -1 53 -6 87 -13 89 -6 2 -11 9 -11 16 0 7
-9 21 -20 31 -11 10 -18 20 -17 24 5 9 -81 89 -88 83 -3 -3 -5 -1 -5 5 0 6
-10 13 -23 17 -13 3 -36 17 -51 31 -15 14 -33 25 -40 25 -8 0 -16 6 -19 13 -9
24 -105 67 -149 67 -61 0 -172 19 -176 31 -2 5 -15 9 -28 9 -29 0 -54 48 -33
61 7 4 -9 10 -37 14 -62 9 -189 41 -226 57 -15 7 -33 26 -39 43 -7 16 -18 37
-24 45 -7 8 -15 36 -18 63 -7 50 -13 60 -63 111 -58 58 -97 87 -126 93 -15 3
-28 9 -28 13 0 10 -94 30 -140 30 -29 0 -46 7 -65 25 -14 14 -25 29 -25 33 0
15 -62 72 -85 78 -14 3 -25 12 -25 18 0 7 -13 25 -29 40 -16 16 -32 38 -35 50
-3 11 -24 31 -46 44 -33 19 -54 23 -103 21 l-62 -3 -3 37 c-2 20 -7 37 -13 37
-5 0 -8 3 -7 8 1 4 -9 27 -21 52 -20 40 -27 45 -59 48 -40 3 -47 6 -37 21 3 6
24 11 45 11 21 0 42 5 45 10 3 6 14 10 24 10 10 0 30 12 45 26 21 21 26 36 26
73 0 25 -3 55 -6 67 -7 26 -86 64 -135 65 -19 0 -47 9 -64 20 -41 26 -91 49
-109 49 -8 0 -18 5 -21 10 -4 7 -12 7 -25 0 -31 -16 -61 -12 -96 15 -18 14
-37 25 -43 25 -6 0 -11 5 -11 10 0 6 -4 10 -10 10 -8 0 -62 32 -103 62 -15 12
-16 16 -3 53 15 40 12 168 -4 190 -4 6 -10 42 -14 81 -6 69 6 134 24 134 5 0
11 9 15 19 3 11 15 23 27 27 12 3 44 28 71 55 28 27 53 49 57 49 4 0 19 17 33
38 l25 39 216 7 c119 4 220 5 224 2 5 -3 17 27 27 66 23 91 47 118 107 125 47
5 118 -11 118 -28 0 -13 55 -39 83 -39 14 0 30 -6 36 -14 6 -7 40 -16 76 -19
57 -6 144 -41 165 -67 3 -4 20 -15 39 -26 19 -10 68 -51 108 -91 l74 -72 52 6
c29 3 65 12 81 19 16 8 46 14 68 14 21 0 38 4 38 9 0 5 20 12 45 15 24 4 47
11 50 16 10 15 -64 66 -116 79 -44 12 -78 33 -114 71 -5 6 -18 19 -27 28 -10
9 -18 22 -18 29 0 8 -12 19 -27 26 -16 6 -34 17 -41 24 -7 7 -17 13 -20 13 -4
0 -29 20 -55 43 -26 24 -65 49 -88 56 -22 7 -49 20 -59 29 -39 36 -86 84 -115
119 -59 70 -134 123 -178 123 -41 0 -63 -14 -147 -95 -101 -97 -126 -109 -209
-100 -36 4 -85 7 -108 7 -35 0 -43 4 -43 19 0 10 8 20 18 23 42 14 73 61 79
121 7 65 21 76 59 46 45 -35 100 -29 167 20 32 22 57 44 57 48 0 5 18 11 40
15 22 3 40 11 40 16 0 6 7 10 15 10 18 0 77 54 68 63 -3 4 0 13 7 22 8 10 11
30 7 59 l-6 43 63 -1 c43 -1 67 -6 78 -17 20 -20 211 -35 251 -20 26 10 57 56
57 84 0 8 6 17 14 20 28 11 36 72 19 140 -9 34 -20 68 -26 76 -6 7 -16 23 -22
35 -6 11 -20 25 -32 31 -18 8 -22 17 -21 57 1 27 -4 54 -10 60 -15 15 -16 45
-1 50 21 7 14 93 -10 127 -12 17 -26 31 -31 31 -5 0 -23 20 -41 45 -27 37 -38
45 -76 51 -44 6 -63 24 -63 61 0 28 -44 63 -79 63 -23 0 -43 -11 -73 -40 -49
-47 -93 -64 -151 -58 -24 3 -58 -2 -80 -10 -21 -8 -41 -12 -44 -8 -10 10 47
64 76 71 14 4 34 14 43 23 9 9 33 28 53 42 20 14 45 33 55 42 11 9 34 25 52
34 18 9 35 20 38 23 11 13 88 77 110 91 13 8 36 26 52 40 15 14 44 36 64 50
19 14 47 35 61 47 14 12 34 25 44 28 11 4 19 11 19 16 0 5 6 9 14 9 15 0 168
78 176 90 3 4 22 13 43 21 20 7 37 17 37 21 0 4 6 8 13 8 15 1 76 28 62 28 -5
0 -17 -2 -25 -5z m-1000 -693 c0 -5 -4 -10 -10 -10 -5 0 -10 5 -10 10 0 6 5
10 10 10 6 0 10 -4 10 -10z m-30 -12 c0 -19 -63 -85 -88 -92 -36 -12 -25 10
30 58 59 51 58 51 58 34z m-5 -587 c-3 -6 -11 -11 -17 -11 -6 0 -6 6 2 15 14
17 26 13 15 -4z m-991 -1538 c2 -10 8 -34 12 -53 3 -19 13 -45 21 -57 18 -27
11 -53 -13 -53 -10 0 -25 -7 -34 -15 -10 -9 -45 -21 -79 -27 -56 -11 -66 -10
-116 11 -63 26 -74 22 -102 -36 -12 -27 -13 -39 -4 -59 15 -35 14 -60 -5 -79
-32 -32 -38 -3 -25 121 12 125 30 176 67 200 20 14 25 14 46 1 61 -39 136 -26
179 32 25 35 45 40 53 14z m796 -513 c0 -5 -9 -10 -20 -10 -11 0 -20 5 -20 10
0 6 9 10 20 10 11 0 20 -4 20 -10z m2847 -30 c-6 -27 -37 -85 -42 -78 -1 2 -5
15 -8 29 -5 19 -1 34 14 53 28 35 43 33 36 -4z m-3422 -170 c22 -11 55 -20 73
-20 52 0 132 -31 132 -51 0 -17 -53 -69 -70 -69 -5 0 -30 -19 -55 -42 -43 -40
-51 -43 -113 -48 -45 -4 -71 -2 -79 7 -16 14 -17 40 -3 45 6 2 13 41 16 88 9
117 22 129 99 90z m-639 -146 c14 -57 -43 -165 -81 -150 -16 6 -17 15 -12 82
4 42 9 80 13 85 3 5 21 9 39 9 29 0 36 -4 41 -26z m231 -144 c3 -11 9 -20 14
-20 5 0 9 -13 9 -29 0 -28 39 -81 60 -81 5 0 10 -5 10 -11 0 -26 53 -79 86
-85 19 -3 34 -10 34 -14 0 -14 51 -30 95 -30 l45 0 0 -59 c0 -49 -4 -65 -24
-85 l-23 -26 -219 0 c-202 0 -222 2 -254 20 -19 11 -43 23 -52 26 -25 9 -32
40 -18 93 13 49 17 61 50 131 27 58 40 81 65 106 11 11 32 35 48 52 31 36 66
42 74 12z m220 -778 c8 -5 12 -41 11 -111 -1 -72 3 -105 11 -111 7 -4 12 -10
12 -14 -3 -15 31 -64 67 -99 31 -29 41 -48 47 -82 3 -25 10 -45 14 -45 5 0 14
-15 21 -32 7 -18 25 -60 40 -93 16 -33 38 -82 50 -108 13 -27 29 -51 36 -54 8
-3 14 -11 14 -18 0 -17 94 -102 122 -111 13 -3 42 -27 66 -51 l42 -45 0 -110
c0 -104 10 -179 31 -223 5 -11 8 -92 7 -179 l-3 -159 -75 -20 c-41 -11 -77
-23 -80 -27 -7 -10 -84 -27 -155 -35 -33 -4 -64 -11 -70 -15 -5 -4 -27 -10
-47 -14 -21 -4 -43 -13 -51 -20 -25 -26 -136 -77 -159 -74 -16 2 -27 15 -38
46 -9 24 -34 63 -56 88 -21 25 -43 53 -48 62 -5 9 -16 23 -23 30 -7 7 -13 18
-13 24 0 5 -8 22 -19 36 -10 15 -24 53 -30 84 -7 31 -21 68 -32 81 -10 14 -19
29 -19 33 0 4 -6 15 -14 23 -7 9 -24 47 -37 85 -12 37 -32 82 -44 100 -55 82
-92 185 -101 281 -8 84 -2 92 77 101 80 9 130 -8 177 -61 61 -69 85 -62 187
53 21 23 31 40 22 37 -41 -16 -222 29 -293 73 -56 35 -96 71 -160 145 -31 36
-32 39 -34 149 -4 197 -4 201 33 241 53 59 102 86 174 97 36 6 74 15 85 21 33
18 234 35 255 21z m4063 -900 c0 -4 23 -13 52 -20 28 -6 59 -20 69 -31 10 -11
32 -22 49 -26 16 -4 30 -10 30 -15 0 -24 82 -33 279 -31 l204 2 60 -63 60 -63
117 0 c75 0 122 4 131 12 19 15 99 43 126 43 12 0 24 4 28 9 3 6 27 13 53 17
26 3 56 12 68 19 12 8 36 16 55 20 34 6 35 6 47 -39 6 -25 16 -46 22 -46 5 0
10 -8 10 -18 0 -11 9 -27 20 -37 10 -9 19 -20 18 -24 -1 -3 4 -19 11 -36 7
-16 15 -63 18 -102 3 -40 10 -73 14 -73 5 0 9 -16 9 -35 0 -45 19 -130 36
-163 8 -15 14 -31 14 -37 0 -5 14 -26 30 -45 17 -19 33 -43 36 -52 3 -10 9
-18 14 -18 5 0 11 -14 15 -31 4 -17 13 -33 21 -36 16 -6 19 -49 4 -58 -13 -8
-13 -50 -1 -73 5 -9 15 -32 21 -50 20 -52 71 -89 132 -97 64 -8 164 8 189 31
12 11 41 16 94 18 59 1 80 6 90 19 7 9 16 17 20 17 12 0 79 34 93 47 7 7 17
13 22 13 14 0 135 128 150 157 13 26 34 51 101 121 23 25 34 40 81 111 10 14
18 36 18 49 0 36 44 26 48 -10 2 -16 7 -28 12 -28 5 0 12 -25 15 -55 7 -54 6
-58 -34 -116 -22 -33 -41 -64 -41 -68 0 -23 -189 -289 -252 -355 -15 -17 -28
-33 -28 -36 0 -4 -24 -32 -52 -62 -29 -30 -96 -101 -148 -157 -52 -55 -100
-101 -107 -101 -7 0 -17 9 -23 20 -11 21 -12 20 -43 -6 -48 -40 -106 -64 -161
-64 -114 0 -171 44 -232 180 -33 74 -38 97 -42 182 -4 91 -3 99 24 148 18 33
24 54 18 58 -6 4 -19 30 -28 57 -10 28 -22 58 -27 67 -5 10 -9 35 -9 57 l0 39
-52 -15 c-80 -23 -88 -34 -88 -115 0 -95 -32 -148 -89 -148 -28 0 -71 -25 -71
-41 0 -5 24 -34 54 -64 30 -29 57 -63 61 -74 3 -12 10 -21 15 -21 5 0 11 -13
15 -30 4 -17 13 -30 21 -30 9 0 12 -4 9 -10 -3 -5 -2 -10 2 -10 9 0 33 -100
33 -138 0 -32 38 -89 73 -110 18 -11 55 -25 82 -32 28 -8 52 -16 55 -20 3 -3
23 -14 45 -25 22 -10 45 -23 51 -29 7 -6 21 -19 33 -28 24 -21 28 -48 6 -48
-8 0 -15 -4 -15 -9 0 -5 -8 -12 -17 -15 -10 -4 -37 -24 -60 -45 -23 -22 -57
-48 -75 -58 -18 -10 -37 -24 -41 -30 -4 -7 -15 -13 -23 -13 -8 0 -22 -9 -31
-20 -10 -11 -23 -20 -30 -20 -7 0 -13 -4 -13 -10 0 -5 -7 -10 -15 -10 -8 0
-15 -4 -15 -9 0 -5 -17 -16 -37 -26 -52 -23 -106 -52 -120 -64 -7 -6 -28 -18
-47 -28 -20 -9 -36 -20 -36 -25 0 -4 -6 -8 -13 -8 -17 0 -112 -46 -158 -77
-31 -21 -44 -23 -87 -17 -42 5 -56 13 -83 45 -18 22 -38 39 -44 39 -15 0 -47
25 -115 90 -32 30 -64 60 -71 66 -8 6 -23 24 -34 39 -11 15 -35 44 -55 64 -20
20 -44 53 -53 74 -10 20 -22 37 -27 37 -4 0 -11 18 -15 40 -4 22 -13 46 -20
53 -7 7 -15 22 -19 33 -3 11 -22 37 -41 57 -21 22 -35 47 -35 62 0 14 -4 25
-9 25 -5 0 -11 13 -14 29 -5 23 -15 32 -53 47 -34 13 -49 25 -56 46 -6 15 -14
28 -19 28 -5 0 -12 18 -15 40 -4 22 -10 40 -13 40 -10 0 -39 69 -47 109 -4 18
-13 35 -20 38 -8 3 -14 12 -14 20 0 22 -49 117 -65 126 -7 4 -16 22 -20 40 -9
42 -28 87 -37 87 -5 0 -8 9 -8 20 0 20 -20 71 -31 80 -3 3 -12 23 -19 45 -7
22 -24 61 -37 86 -13 26 -26 64 -29 85 -11 83 -37 168 -55 184 -14 12 -29 78
-29 131 0 34 -5 63 -13 71 -15 16 -33 61 -42 106 -4 17 -11 32 -16 32 -5 0 -9
11 -9 25 0 15 6 25 15 25 8 0 19 9 25 20 6 10 29 25 53 31 23 7 46 16 52 21
11 10 95 11 95 0z m3150 -54 c-1 -13 -13 -54 -28 -93 -28 -71 -54 -92 -60 -47
-5 30 25 127 44 146 23 23 44 20 44 -6z m-6601 -882 c9 -10 8 -33 -5 -92 -17
-82 -14 -175 5 -198 7 -9 10 -66 9 -159 -3 -137 -2 -147 20 -176 18 -24 21
-39 16 -69 -9 -58 11 -120 42 -128 14 -4 23 -9 20 -11 -3 -3 1 -12 9 -19 13
-14 35 -97 35 -134 0 -11 5 -20 10 -20 6 0 10 -11 10 -24 0 -13 7 -29 15 -36
8 -7 15 -20 15 -29 -1 -13 -4 -12 -18 5 -10 12 -33 29 -50 38 -18 9 -45 31
-60 48 -15 18 -36 42 -47 53 -11 12 -27 34 -35 51 -7 16 -42 56 -77 90 -35 33
-63 66 -63 72 0 7 -9 17 -20 24 -11 7 -20 18 -20 25 0 7 -10 17 -21 24 -12 6
-41 31 -65 55 -34 33 -44 51 -44 76 0 17 -5 46 -12 64 -9 25 -9 48 1 103 7 39
16 71 20 71 4 0 13 18 20 41 16 52 60 96 106 105 19 3 35 10 35 14 0 4 15 11
34 14 42 8 52 20 72 85 15 53 24 60 43 37z m750 -933 c17 -21 31 -44 31 -51 0
-7 -15 -28 -32 -46 -18 -18 -41 -45 -51 -59 -23 -35 -43 -34 -62 3 -15 28 -14
32 25 110 23 44 45 80 50 80 5 0 22 -17 39 -37z m-124 -575 c14 -6 25 -14 25
-18 0 -3 23 -17 50 -29 28 -12 50 -27 50 -31 0 -5 18 -15 40 -21 22 -7 40 -16
40 -21 0 -4 8 -8 19 -8 23 0 45 -25 36 -40 -8 -13 -124 -2 -141 14 -7 6 -29
25 -50 41 -47 38 -114 106 -114 117 0 11 15 10 45 -4z"/>
<path d="M4053 5413 c9 -2 25 -2 35 0 9 3 1 5 -18 5 -19 0 -27 -2 -17 -5z"/>
</g>
</svg>
